<?xml version="1.0" standalone="no"?>
<!DOCTYPE svg PUBLIC "-//W3C//DTD SVG 20010904//EN"
 "http://www.w3.org/TR/2001/REC-SVG-20010904/DTD/svg10.dtd">
<svg version="1.0" xmlns="http://www.w3.org/2000/svg"
 width="1920.000000pt" height="1920.000000pt" viewBox="0 0 1920.000000 1920.000000"
 preserveAspectRatio="xMidYMid meet">

<g transform="translate(0.000000,1920.000000) scale(0.100000,-0.100000)"
fill="#000000" stroke="none">
<path d="M3400 17829 c-547 -43 -1046 -202 -1430 -453 -393 -258 -733 -654
-974 -1133 -250 -500 -380 -939 -453 -1533 -17 -138 -18 -407 -18 -5350 0
-4959 1 -5212 18 -5355 64 -531 171 -900 378 -1306 178 -348 399 -633 679
-874 322 -277 597 -415 1007 -504 191 -42 358 -61 598 -68 407 -12 742 57
1080 222 316 154 585 365 832 653 l62 71 16 -42 c8 -23 73 -195 144 -382 l128
-340 707 -3 706 -2 0 4040 0 4040 -1670 0 -1670 0 2 -1002 3 -1003 473 -3 473
-2 -4 -1623 c-3 -1615 -3 -1622 -24 -1715 -29 -127 -99 -334 -138 -412 -120
-238 -310 -363 -575 -377 -279 -15 -473 86 -629 327 -93 144 -151 301 -189
510 -16 89 -17 426 -17 5240 0 4873 1 5150 18 5240 81 440 269 712 552 800 99
31 265 38 374 16 190 -39 298 -109 401 -261 99 -146 164 -311 202 -510 21
-108 22 -136 27 -1505 l6 -1395 1193 -3 1192 -2 0 1297 c0 1384 -2 1459 -51
1783 -168 1112 -717 2038 -1485 2506 -352 214 -744 344 -1204 399 -161 19
-578 27 -740 14z"/>
<path d="M8630 9550 l0 -8120 1190 0 1190 0 0 8120 0 8120 -1190 0 -1190 0 0
-8120z"/>
<path d="M11940 16440 l0 -1230 1125 0 1125 0 0 -6890 0 -6890 1195 0 1195 0
0 6890 0 6890 1125 0 1125 0 0 1230 0 1230 -3445 0 -3445 0 0 -1230z"/>
</g>
</svg>
